<svg version="1.1" id="Layer_1" xmlns="http://www.w3.org/2000/svg" xmlns:xlink="http://www.w3.org/1999/xlink" x="0px" y="0px"
	 width="100%" viewBox="0 0 375 282" enable-background="new 0 0 375 282" xml:space="preserve">
<path fill="#000000" opacity="1.000000" stroke="none" 
	d="
M272.000000,283.000000 
	C181.333344,283.000000 91.166702,283.000000 1.000036,283.000000 
	C1.000024,189.000031 1.000024,95.000069 1.000012,1.000074 
	C125.999947,1.000049 250.999893,1.000049 375.999878,1.000025 
	C375.999939,94.999931 375.999939,188.999863 375.999969,282.999878 
	C341.500000,283.000000 307.000000,283.000000 272.000000,283.000000 
M63.784153,122.748581 
	C63.511253,124.451729 63.038731,126.150574 63.001930,127.858810 
	C62.879059,133.562210 62.912258,139.268951 62.127647,145.399216 
	C62.085098,151.475235 61.939056,157.553009 62.042717,163.626526 
	C62.096291,166.765686 62.593048,169.897263 62.987000,173.961014 
	C63.994812,189.363647 64.337631,204.850159 66.266022,220.136658 
	C67.378777,228.957565 70.655937,237.596939 73.679611,246.060547 
	C76.968506,255.266525 85.038147,256.336578 93.426834,255.954163 
	C100.423271,255.635193 106.792404,250.427689 108.989677,243.333176 
	C112.650055,231.514740 111.910492,219.310913 112.798157,206.744232 
	C112.808784,186.173508 112.819412,165.602783 112.979462,144.196442 
	C113.319603,138.799591 113.849220,133.406677 113.961243,128.005081 
	C114.210335,115.994072 115.898819,104.229355 120.097313,92.962753 
	C121.883896,88.168488 125.447792,84.715088 130.835129,84.042931 
	C136.312714,83.359528 141.553284,84.899208 143.845001,89.959328 
	C147.067749,97.075119 149.624268,104.606651 151.485382,112.200645 
	C155.025436,126.645340 157.976151,141.238586 160.976334,155.810364 
	C164.206512,171.499237 167.530563,187.124954 175.126633,201.463455 
	C178.968964,208.716293 189.405991,215.004883 197.466583,213.872421 
	C203.481888,213.027313 210.246140,212.192871 214.102737,207.087479 
	C217.879791,202.087433 220.634598,196.107742 222.829437,190.184296 
	C224.647964,185.276428 225.032639,179.830811 225.990524,174.612061 
	C227.277344,167.601028 228.558075,160.588089 229.744766,153.559662 
	C231.539856,142.927780 232.996521,132.231735 235.072815,121.656387 
	C237.018555,111.746017 237.845169,101.454704 244.903809,93.146523 
	C252.351685,84.380211 261.671844,85.581535 267.423004,93.315269 
	C271.053619,98.197411 273.771759,104.478653 274.737396,110.480148 
	C277.148407,125.464684 278.620575,140.622650 279.907776,155.758804 
	C281.009491,168.714478 281.312195,181.737488 282.004303,194.728806 
	C282.644440,206.744095 283.344757,218.756149 283.996216,230.770844 
	C284.744293,244.567001 286.580627,246.705490 299.773926,249.029526 
	C310.172913,250.861343 319.650208,245.470673 322.919434,235.371460 
	C324.644073,230.043701 325.571228,224.457764 327.018097,218.086365 
	C327.286621,210.073288 327.555145,202.060196 327.980591,193.190628 
	C328.009644,188.175797 328.038696,183.160965 328.764465,177.805511 
	C328.795868,176.526382 328.827271,175.247269 328.973083,173.508133 
	C328.973083,173.508133 328.845490,173.051605 328.991516,172.113800 
	C328.990326,169.323471 329.095398,166.528107 328.964050,163.743927 
	C328.746063,159.124191 328.376129,154.511627 328.341370,149.143677 
	C328.173859,144.433044 328.006348,139.722397 327.985596,134.097198 
	C327.601318,127.066933 327.217041,120.036674 326.965424,112.193985 
	C326.311035,109.377472 325.526978,106.583839 325.025452,103.740364 
	C323.168732,93.213341 322.096222,82.487335 319.376831,72.193298 
	C317.385681,64.655769 313.524628,57.556278 310.054199,50.478661 
	C304.963501,40.096676 296.635132,32.889896 286.280273,28.002743 
	C276.940308,23.594599 266.919647,25.167955 257.120972,25.028179 
	C243.746689,24.837391 230.627670,36.670692 227.105789,47.285542 
	C223.859177,57.070717 220.875458,66.992752 218.612747,77.042915 
	C215.342575,91.567780 212.960403,106.290230 209.933014,120.873085 
	C208.461548,127.961037 206.773682,135.061157 204.360077,141.863495 
	C203.581879,144.056702 200.343445,146.276810 197.917038,146.703873 
	C195.935822,147.052582 192.279556,145.297501 191.474548,143.520126 
	C189.097580,138.272034 187.444794,132.627136 186.098526,126.996460 
	C183.827606,117.498558 182.155106,107.858986 179.971420,98.338524 
	C175.780151,80.065399 171.700668,61.728508 162.940048,44.919659 
	C157.786911,35.032410 150.109177,28.579391 138.911926,25.766851 
	C130.863281,23.745188 123.125648,23.750431 115.135330,24.988035 
	C96.702591,27.843048 83.187157,37.738838 75.392632,54.441746 
	C68.590355,69.018356 66.534981,84.876938 65.222809,101.324738 
	C64.871475,108.207649 64.520142,115.090569 63.784153,122.748581 
z"/>
<path fill="#FEDE5A" opacity="1.000000" stroke="none" 
	d="
M326.858459,218.988403 
	C325.571228,224.457764 324.644073,230.043701 322.919434,235.371460 
	C319.650208,245.470673 310.172913,250.861343 299.773926,249.029526 
	C286.580627,246.705490 284.744293,244.567001 283.996216,230.770844 
	C283.344757,218.756149 282.644440,206.744095 282.004303,194.728806 
	C281.312195,181.737488 281.009491,168.714478 279.907776,155.758804 
	C278.620575,140.622650 277.148407,125.464684 274.737396,110.480148 
	C273.771759,104.478653 271.053619,98.197411 267.423004,93.315269 
	C261.671844,85.581535 252.351685,84.380211 244.903809,93.146523 
	C237.845169,101.454704 237.018555,111.746017 235.072815,121.656387 
	C232.996521,132.231735 231.539856,142.927780 229.744766,153.559662 
	C228.558075,160.588089 227.277344,167.601028 225.990524,174.612061 
	C225.032639,179.830811 224.647964,185.276428 222.829437,190.184296 
	C220.634598,196.107742 217.879791,202.087433 214.102737,207.087479 
	C210.246140,212.192871 203.481888,213.027313 197.466583,213.872421 
	C189.405991,215.004883 178.968964,208.716293 175.126633,201.463455 
	C167.530563,187.124954 164.206512,171.499237 160.976334,155.810364 
	C157.976151,141.238586 155.025436,126.645340 151.485382,112.200645 
	C149.624268,104.606651 147.067749,97.075119 143.845001,89.959328 
	C141.553284,84.899208 136.312714,83.359528 130.835129,84.042931 
	C125.447792,84.715088 121.883896,88.168488 120.097313,92.962753 
	C115.898819,104.229355 114.210335,115.994072 113.961243,128.005081 
	C113.849220,133.406677 113.319603,138.799591 112.693069,144.963974 
	C112.274368,147.533920 112.029671,149.336182 112.027061,151.138794 
	C112.000084,169.820908 112.012115,188.503082 112.013298,207.185242 
	C111.910492,219.310913 112.650055,231.514740 108.989677,243.333176 
	C106.792404,250.427689 100.423271,255.635193 93.426834,255.954163 
	C85.038147,256.336578 76.968506,255.266525 73.679611,246.060547 
	C70.655937,237.596939 67.378777,228.957565 66.266022,220.136658 
	C64.337631,204.850159 63.994812,189.363647 62.995277,173.029877 
	C62.964256,163.057297 62.924957,154.015854 62.885658,144.974411 
	C62.912258,139.268951 62.879059,133.562210 63.001930,127.858810 
	C63.038731,126.150574 63.511253,124.451729 64.199280,122.058777 
	C65.064369,114.540649 65.514336,107.712326 65.964310,100.884010 
	C66.534981,84.876938 68.590355,69.018356 75.392632,54.441746 
	C83.187157,37.738838 96.702591,27.843048 115.135330,24.988035 
	C123.125648,23.750431 130.863281,23.745188 138.911926,25.766851 
	C150.109177,28.579391 157.786911,35.032410 162.940048,44.919659 
	C171.700668,61.728508 175.780151,80.065399 179.971420,98.338524 
	C182.155106,107.858986 183.827606,117.498558 186.098526,126.996460 
	C187.444794,132.627136 189.097580,138.272034 191.474548,143.520126 
	C192.279556,145.297501 195.935822,147.052582 197.917038,146.703873 
	C200.343445,146.276810 203.581879,144.056702 204.360077,141.863495 
	C206.773682,135.061157 208.461548,127.961037 209.933014,120.873085 
	C212.960403,106.290230 215.342575,91.567780 218.612747,77.042915 
	C220.875458,66.992752 223.859177,57.070717 227.105789,47.285542 
	C230.627670,36.670692 243.746689,24.837391 257.120972,25.028179 
	C266.919647,25.167955 276.940308,23.594599 286.280273,28.002743 
	C296.635132,32.889896 304.963501,40.096676 310.054199,50.478661 
	C313.524628,57.556278 317.385681,64.655769 319.376831,72.193298 
	C322.096222,82.487335 323.168732,93.213341 325.025452,103.740364 
	C325.526978,106.583839 326.311035,109.377472 326.677032,112.947586 
	C326.264252,116.494064 325.852783,119.310722 326.081543,122.074371 
	C326.440094,126.405640 327.231049,130.701126 327.838837,135.011765 
	C328.006348,139.722397 328.173859,144.433044 328.188843,149.993835 
	C328.306061,158.246536 328.575775,165.649063 328.845490,173.051605 
	C328.845490,173.051605 328.973083,173.508133 328.709961,174.036591 
	C328.320465,175.758743 328.194092,176.952438 328.067749,178.146133 
	C328.038696,183.160965 328.009644,188.175797 327.693054,193.958832 
	C326.946198,198.942566 326.215881,203.151123 326.107330,207.375641 
	C326.008087,211.237579 326.581482,215.116806 326.858459,218.988403 
z"/>
<path fill="#F5DD79" opacity="1.000000" stroke="none" 
	d="
M112.405731,206.964737 
	C112.012115,188.503082 112.000084,169.820908 112.027061,151.138794 
	C112.029671,149.336182 112.274368,147.533920 112.618362,145.381775 
	C112.819412,165.602783 112.808784,186.173508 112.405731,206.964737 
z"/>
<path fill="#F8DB74" opacity="1.000000" stroke="none" 
	d="
M327.912231,134.554474 
	C327.231049,130.701126 326.440094,126.405640 326.081543,122.074371 
	C325.852783,119.310722 326.264252,116.494064 326.610718,113.353790 
	C327.217041,120.036674 327.601318,127.066933 327.912231,134.554474 
z"/>
<path fill="#F6DE75" opacity="1.000000" stroke="none" 
	d="
M65.593552,101.104370 
	C65.514336,107.712326 65.064369,114.540649 64.391602,121.671219 
	C64.520142,115.090569 64.871475,108.207649 65.593552,101.104370 
z"/>
<path fill="#F8DE76" opacity="1.000000" stroke="none" 
	d="
M326.938293,218.537384 
	C326.581482,215.116806 326.008087,211.237579 326.107330,207.375641 
	C326.215881,203.151123 326.946198,198.942566 327.614624,194.387085 
	C327.555145,202.060196 327.286621,210.073288 326.938293,218.537384 
z"/>
<path fill="#FFFFFF" opacity="1.000000" stroke="none" 
	d="
M62.506653,145.186813 
	C62.924957,154.015854 62.964256,163.057297 62.946564,172.565506 
	C62.593048,169.897263 62.096291,166.765686 62.042717,163.626526 
	C61.939056,157.553009 62.085098,151.475235 62.506653,145.186813 
z"/>
<path fill="#EBD16B" opacity="1.000000" stroke="none" 
	d="
M328.918518,172.582703 
	C328.575775,165.649063 328.306061,158.246536 328.053284,150.370026 
	C328.376129,154.511627 328.746063,159.124191 328.964050,163.743927 
	C329.095398,166.528107 328.990326,169.323471 328.918518,172.582703 
z"/>
<path fill="#EBD16B" opacity="1.000000" stroke="none" 
	d="
M328.416107,177.975830 
	C328.194092,176.952438 328.320465,175.758743 328.652771,174.266602 
	C328.827271,175.247269 328.795868,176.526382 328.416107,177.975830 
z"/>
</svg>